<?xml version="1.0" encoding="utf-8"?>
<!-- Generator: Adobe Illustrator 24.1.2, SVG Export Plug-In . SVG Version: 6.00 Build 0)  -->
<svg version="1.1" id="Capa_1" xmlns="http://www.w3.org/2000/svg" xmlns:xlink="http://www.w3.org/1999/xlink" x="0px" y="0px"
	 viewBox="0 0 566.93 566.93" style="enable-background:new 0 0 566.93 566.93;" xml:space="preserve">
<style type="text/css">
	.st0{fill:#436A5E;}
</style>
<path class="st0" d="M284.93,344.38c-0.53-12.16-1.35-24.37-1.53-36.58c-0.34-22.68-11.97-40.18-25.27-57.05
	c-3.22-4.08-7.76-5.84-12.45-7.09c-1.49-0.4-3.58,0.62-5.15,1.46c-9.56,5.14-19.43,9.02-30.53,9.01c-8-0.01-14.95-2.81-21.03-7.68
	c-8.16-6.54-13.89-15-18.03-24.52c-0.49-1.12-0.32-3.56,0.39-3.99c9.36-5.64,19.17-10.16,30.34-10.88
	c13.3-0.86,23.48,5.08,31.44,15.02c3.95,4.94,6.9,10.67,10.31,16.04c0.61,0.96,1.25,1.89,1.88,2.83c0.31-0.15,0.62-0.3,0.93-0.45
	c-0.18-0.86-0.25-1.78-0.57-2.58c-4.15-10.35-6.16-21.06-5.44-32.21c0.2-3.04-0.84-5.07-3.08-7.11c-7-6.36-12.84-13.69-16.35-22.57
	c-3.66-9.25-3.51-18.5,0.58-27.65c4.44-9.91,11.42-17.73,19.7-24.96c12.37,11.12,23.37,22.73,23.41,40.38
	c0.02,10.87-5.42,19.81-12.26,27.88c-2.42,2.86-5.22,5.38-7.64,8.24c-0.88,1.03-1.65,2.59-1.61,3.89
	c0.36,13.51,3.93,26.09,11.32,37.49c0.47,0.73,1.05,1.42,1.7,1.99c8.88,7.81,16.6,16.61,22.85,26.67c0.23,0.36,0.66,0.6,0.95,0.85
	c0-4.19,0.16-8.24-0.03-12.29c-1.1-24.5-1.21-48.97,1.78-73.37c0.09-0.74,0.27-1.47,0.44-2.2c1.37-6.02,0.62-11.39-2.38-17.16
	c-5.96-11.48-9.67-23.9-4.75-36.73c2.08-5.41,5.46-10.97,9.76-14.72c6.22-5.42,13.77-9.33,20.84-13.74c2.54-1.58,4.43-0.9,5.97,1.99
	c4.45,8.35,7.71,17.07,8.66,26.51c1.53,15.18-5.54,26.26-17.41,34.66c-4.45,3.15-9.37,5.76-14.33,8.05
	c-2.69,1.24-3.9,2.83-3.95,5.55c-0.24,11.86-0.74,23.73-0.58,35.59c0.13,9.34,1.11,18.66,1.78,29.01c4.01-2.23,7.68-3.62,10.54-5.99
	c5.07-4.21,9.66-8.99,14.42-13.57c1.82-1.75,1.8-3.73,1.12-6.16c-2.78-9.94-4.18-20-1.97-30.31c2.15-10,7.83-17.39,16.38-22.74
	c7.96-4.98,16.8-7.56,25.93-9.2c0.83-0.15,2.49,0.72,2.72,1.45c4.14,13.22,6.09,26.55,0.71,39.94c-3.78,9.4-11.23,15.23-20.15,19.09
	c-5.68,2.46-11.83,3.81-17.74,5.76c-1.34,0.44-2.98,0.98-3.74,2.02c-3.6,4.91-6.94,10.01-10.73,15.57c5.03-0.84,10,0.27,14.2-3.78
	c8.48-8.18,18.09-14.51,29.97-16.75c6.12-1.16,11.96-0.11,17.57,2.17c11.34,4.6,19.86,12.71,27.17,22.24
	c-15.46,18.83-40.71,30.57-63.16,12.08c-4.8-3.95-8.9-8.72-13.51-12.91c-1.08-0.98-3.05-1.79-4.41-1.55
	c-7.73,1.4-14.65,4.71-20.94,9.47c-2.42,1.83-3.21,3.9-2.76,6.76c2.34,14.65,4.73,29.3,6.94,43.97c2.78,18.49,5.4,37.01,8.1,55.52
	c0.17,1.16,0.47,2.3,0.77,3.72c3.26-5.89,6.37-11.27,9.19-16.79c0.66-1.29,0.65-3.15,0.4-4.65c-1.45-8.74-1.41-17.47,0.61-26.06
	c3.29-13.94,12.08-23.14,25.73-27.15c6.41-1.88,13.2-2.44,19.8-3.66c3.3-0.61,4.9,0.34,5.39,4.01c1.32,9.78,1.3,19.46-1.53,28.93
	c-3.7,12.39-12.35,20.09-24.4,23.82c-6.03,1.86-12.41,2.53-18.58,3.99c-1.47,0.35-3.3,1.37-3.95,2.61
	c-7.76,14.8-12.42,30.18-11.65,47.33c0.9,20.1,0.35,40.26,0.42,60.39c0.02,5.24,0,10.47,0,15.99c-10.09,0-20.39,0-31.33,0
	c0.55-5.2,1.03-10.35,1.64-15.48c2.1-17.47,4.34-34.92,6.32-52.4c1.1-9.67,2.27-19.39,2.45-29.1c0.1-5.46-1.16-11.15-2.85-16.4
	c-3.43-10.68-9.21-20.16-16.48-28.75c-1.99-2.35-3.69-2.87-6.7-1.88c-9.68,3.16-19.61,4.89-29.83,3.08
	c-14.3-2.53-23.1-11.71-28.64-24.4c-2.18-5-3.47-10.39-5.12-15.61c-0.8-2.52-0.24-4.09,2.68-4.96c11.12-3.33,22.25-5.6,33.86-2.66
	c7.55,1.91,13.69,5.95,18.5,12.01c5.52,6.96,8.68,15.05,11.3,23.46c0.87,2.8,2.72,5.47,4.68,7.72
	C271.35,329.58,278.03,336.76,284.93,344.38z"/>
<path class="st0" d="M373.93,214.22c-4.86-0.04-7.83-3.05-7.85-7.97c-0.02-4.97,3.23-8.23,8.13-8.18c4.5,0.05,8.01,3.62,7.99,8.11
	C382.17,211.11,378.93,214.26,373.93,214.22z"/>
<path class="st0" d="M199.61,189.37c-0.04-5.18,2.99-8.52,7.74-8.53c4.71-0.01,8.24,3.44,8.39,8.2c0.13,4.39-3.42,7.95-8.01,8.01
	C202.83,197.13,199.64,194.11,199.61,189.37z"/>
<path class="st0" d="M257.85,334.53c5.12,0,8.31,3.1,8.23,7.98c-0.08,4.77-3.2,7.84-8.01,7.89c-5.06,0.04-8.18-3.06-8.13-8.08
	C249.99,337.35,252.86,334.52,257.85,334.53z"/>
<path class="st0" d="M327.18,136.33c0.01-5,3.22-8.24,8.1-8.17c4.52,0.06,7.99,3.58,7.99,8.1c0,4.76-3.51,8.22-8.28,8.16
	C330.34,144.37,327.17,141.08,327.18,136.33z"/>
<path class="st0" d="M190.37,275.11c-4.89-0.04-7.88-3.01-7.89-7.86c-0.01-4.91,3.15-7.85,8.34-7.76c4.75,0.08,7.85,3.31,7.74,8.06
	C198.44,272.28,195.34,275.14,190.37,275.11z"/>
<path class="st0" d="M334.54,359.4c0.02,4.82-3.06,7.97-7.83,8c-4.77,0.03-8.37-3.49-8.29-8.1c0.08-4.61,3.46-7.8,8.19-7.76
	C331.58,351.59,334.52,354.5,334.54,359.4z"/>
<path class="st0" d="M267.74,116.47c0,5.29-2.84,8.1-8.1,8.04c-4.88-0.06-8.1-3.25-8.02-7.94c0.08-4.83,3.17-7.83,8.08-7.83
	C264.81,108.75,267.74,111.56,267.74,116.47z"/>
<path class="st0" d="M378.13,265.24c4.75,0.17,7.77,3.49,7.54,8.27c-0.23,4.8-3.4,7.7-8.29,7.58c-4.42-0.11-8-3.78-7.98-8.17
	C369.42,268.36,373.16,265.06,378.13,265.24z"/>
</svg>
