<?xml version="1.0" standalone="no"?>
<!DOCTYPE svg PUBLIC "-//W3C//DTD SVG 20010904//EN"
 "http://www.w3.org/TR/2001/REC-SVG-20010904/DTD/svg10.dtd">
<svg version="1.0" xmlns="http://www.w3.org/2000/svg"
 width="500.000000pt" height="500.000000pt" viewBox="0 0 500.000000 500.000000"
 preserveAspectRatio="xMidYMid meet">

<g transform="translate(0.000000,500.000000) scale(0.100000,-0.100000)"
fill="#000000" stroke="none">
<path d="M2735 4910 c-287 -151 -403 -329 -374 -573 11 -87 56 -224 102 -308
l30 -57 -16 -135 c-34 -268 -40 -404 -33 -767 3 -195 8 -368 11 -385 6 -29 5
-29 -10 -10 -8 11 -43 58 -77 105 -33 47 -107 131 -163 187 -136 136 -196 253
-230 450 -27 152 -24 164 46 236 116 118 182 228 215 357 29 113 3 238 -78
374 -40 69 -202 246 -224 246 -19 0 -177 -173 -213 -233 -71 -120 -86 -171
-86 -292 1 -91 5 -120 23 -167 34 -84 112 -198 192 -279 l70 -72 0 -97 c0
-115 20 -231 59 -341 32 -89 21 -107 -19 -31 -50 95 -142 222 -196 270 -172
154 -366 171 -628 56 -55 -24 -113 -54 -129 -67 l-27 -22 29 -62 c79 -165 201
-300 325 -359 156 -74 349 -53 566 62 35 19 73 34 85 34 11 0 48 -13 81 -29
46 -22 75 -45 113 -91 75 -90 144 -196 200 -307 80 -158 98 -215 111 -354 13
-136 28 -569 20 -569 -3 1 -30 38 -60 83 -30 45 -98 124 -151 177 -91 89 -98
99 -114 160 -10 36 -39 111 -66 168 -83 171 -193 265 -355 298 -116 24 -307 4
-438 -45 -27 -11 -28 -13 -21 -59 10 -65 59 -205 96 -271 118 -211 302 -301
553 -270 50 6 127 22 171 35 l80 23 33 -37 c96 -108 200 -298 242 -442 34
-113 25 -236 -70 -1022 -28 -223 -50 -413 -50 -422 0 -14 25 -16 216 -16 178
0 215 2 211 14 -3 7 -6 287 -7 622 l-2 609 26 93 c30 107 75 226 114 297 l27
50 70 8 c156 16 321 80 410 159 126 111 183 329 152 582 l-9 69 -91 -6 c-116
-8 -242 -38 -325 -79 -206 -102 -303 -322 -272 -618 l11 -106 -38 -64 c-22
-36 -51 -92 -66 -125 -15 -33 -27 -58 -28 -55 0 3 -7 55 -14 115 -24 198 -55
404 -115 760 -32 193 -65 397 -72 454 l-12 104 39 34 c53 46 186 110 257 125
l57 12 43 -49 c99 -114 229 -212 325 -246 92 -33 206 -36 294 -9 40 12 94 32
119 45 63 32 198 134 238 179 l32 37 -19 27 c-10 15 -57 63 -103 108 -234 227
-451 259 -708 104 -45 -27 -111 -75 -147 -106 -66 -58 -101 -72 -187 -73 l-29
-1 27 33 c15 17 51 68 81 112 l53 81 63 13 c217 44 396 159 467 297 59 116 68
317 22 497 l-23 88 -46 -7 c-150 -22 -325 -100 -416 -185 -67 -63 -104 -123
-131 -214 -24 -79 -23 -251 1 -355 30 -128 31 -121 -14 -178 -23 -28 -72 -77
-109 -107 -67 -56 -189 -131 -198 -122 -22 22 -40 750 -21 858 7 43 11 48 50
63 78 30 197 106 267 173 55 51 80 85 113 151 42 85 42 86 42 196 -1 132 -24
227 -88 356 -31 62 -48 86 -63 88 -12 2 -56 -15 -99 -38z"/>
<path d="M2112 4805 c-37 -31 -48 -81 -28 -129 18 -43 42 -56 104 -56 44 0 54
4 76 31 28 33 35 93 16 130 -28 51 -120 64 -168 24z"/>
<path d="M3131 4556 c-32 -18 -50 -53 -51 -99 0 -52 52 -107 102 -107 107 0
155 134 71 200 -30 23 -86 26 -122 6z"/>
<path d="M1414 3836 c-29 -29 -34 -41 -34 -81 0 -40 5 -51 31 -76 42 -39 104
-40 148 -3 79 66 26 194 -80 194 -22 0 -41 -10 -65 -34z"/>
<path d="M3655 3628 c-38 -22 -54 -52 -54 -98 -1 -144 202 -150 214 -6 6 82
-90 145 -160 104z"/>
<path d="M1194 2802 c-84 -68 -42 -192 66 -192 65 0 110 43 110 105 0 62 -45
105 -110 105 -28 0 -53 -7 -66 -18z"/>
<path d="M3677 2715 c-30 -30 -38 -66 -26 -111 22 -76 123 -102 180 -45 40 40
41 105 3 150 -23 27 -32 31 -79 31 -43 0 -57 -5 -78 -25z"/>
<path d="M2084 1797 c-20 -18 -28 -35 -32 -75 -4 -47 -2 -54 26 -82 25 -25 38
-30 77 -30 57 0 80 12 100 50 18 35 19 70 3 105 -25 56 -124 74 -174 32z"/>
<path d="M2997 1562 c-35 -36 -43 -81 -23 -120 22 -43 54 -62 104 -62 36 0 49
5 73 31 41 44 41 108 0 150 -25 24 -38 29 -78 29 -41 0 -54 -5 -76 -28z"/>
</g>
</svg>
